<svg viewBox="0 0 337 154" fill="none" xmlns="http://www.w3.org/2000/svg">
<path d="M95 86.5C99.9283 93.1536 97.312 95.928 97.312 107.576C97.312 119.224 98.976 126.008 98.976 131.256C98.976 136.376 96.416 139.576 90.016 139.576C84.128 139.576 81.568 136.888 81.056 132.408C80.928 131.256 80.288 131.896 79.904 132.408C77.216 136.632 73.248 140.856 67.616 139.192C57.76 136.376 52 123.32 52 110.904C52 98.616 58.4 88.888 67.36 88.888C74.656 88.888 79.52 99.896 81.952 108.472C82.208 109.496 82.72 110.52 82.72 107.576C82.72 89.912 75 91.028 75 84.5C75 78.612 77.856 78.5 82.72 78.5C87.584 78.5 91.5933 81.9007 95 86.5ZM67.36 116.152C65.952 124.216 73.888 127.416 79.264 125.88C80.8 125.496 81.44 123.96 81.824 121.656C82.208 119.736 81.824 117.432 80.544 116.024C76.064 111.544 68.512 108.728 67.36 116.152Z" fill="#F6D193"/>
<path d="M135.384 88.888C149.976 88.888 148.824 110.52 136.92 110.776C133.336 110.776 129.496 110.136 126.296 110.648C122.968 111.288 121.688 114.616 121.944 117.688C122.712 123.192 123.608 126.904 123.608 131.256C123.608 136.376 120.92 139.576 114.52 139.576C108.248 139.576 105.56 136.376 105.56 131.256C105.56 126.008 107.224 121.912 107.224 114.232C107.224 104.504 103 104.888 103 98.36C103 92.344 112.216 88.888 117.08 88.888C121.944 88.888 123.608 92.088 123.608 97.208C123.608 99.256 123.352 101.816 122.968 104.376C122.968 104.888 123.224 105.144 123.48 104.504C125.4 99.512 126.808 88.888 135.384 88.888Z" fill="#F6D193"/>
<path d="M171.317 88.12C185.525 88.12 195.509 99.768 195.509 114.232C195.509 128.696 185.525 140.344 171.317 140.344C156.981 140.344 147.125 128.696 147.125 114.232C147.125 99.768 156.981 88.12 171.317 88.12ZM174.773 129.592C178.357 129.208 179.381 122.04 177.461 113.592C175.669 105.144 171.573 98.488 167.861 98.872C164.149 99.256 163.125 106.424 165.045 115C166.965 123.448 171.061 129.976 174.773 129.592Z" fill="#F6D193"/>
<path d="M232.429 88.888C241.261 88.888 247.661 98.616 247.661 110.904C247.661 123.32 241.901 136.376 232.045 139.192C225.133 141.24 220.909 136.248 218.221 131.768C217.837 131.256 217.453 131.512 217.453 132.152C217.965 138.296 218.733 140.984 218.733 144.696C218.733 149.816 216.045 153.016 209.645 153.016C203.373 153.016 200.685 149.816 200.685 144.696C200.685 139.448 202.349 132.536 202.349 120.888C202.349 103.352 198.125 104.888 198.125 98.36C198.125 92.344 207.341 88.888 212.205 88.888C217.069 88.888 218.733 92.088 218.733 97.208C218.733 100.92 218.093 103.096 217.581 109.112C217.581 109.88 217.837 110.008 217.965 109.24C220.013 101.176 223.981 88.888 232.429 88.888ZM217.069 121.912C217.069 124.344 218.861 125.24 220.141 125.624C225.389 127.544 233.709 124.6 232.429 116.152C231.021 108.088 222.701 111.928 218.733 117.304C217.965 118.328 217.069 119.352 217.069 121.912Z" fill="#F6D193"/>
<path d="M279.916 111.032C297.452 117.56 298.092 140.344 269.932 140.344C243.692 140.344 249.58 114.872 262.38 114.872C268.268 114.872 271.212 123.064 275.308 121.784C278.124 120.76 275.564 117.048 270.06 114.488C263.276 111.288 251.884 106.936 251.884 99.64C251.884 92.216 263.148 88.12 273.516 88.12C303.212 88.12 289.772 109.24 282.348 106.424C278.124 104.888 277.356 101.176 274.156 101.176C270.444 101.176 269.932 107.32 279.916 111.032Z" fill="#F6D193"/>
<path d="M102.304 25.888C111.136 25.888 117.536 35.616 117.536 47.904C117.536 60.32 111.776 73.376 101.92 76.192C96.032 77.984 91.936 73.248 89.248 69.28C88.992 68.896 88.608 68.512 88.48 69.664C87.968 74.016 82.8009 75.0093 78.5 74.5C72.8367 73.8294 69.5 68.12 69.5 63C69.5 57.752 72.224 56.224 72.224 44.576C72.224 26.912 68 28.448 68 21.92C68 16.032 77.216 12.448 82.08 12.448C86.944 12.448 88.608 15.776 88.608 20.768C88.608 26.016 86.816 32.928 86.816 44.576C86.816 47.392 87.456 47.264 87.712 46.24C89.504 37.92 94.112 25.888 102.304 25.888ZM87.712 59.168C87.84 60.448 88.352 61.728 89.632 62.496C94.624 64.928 103.712 61.984 102.304 53.152C100.896 45.088 92.832 49.056 88.736 54.304C87.84 55.584 87.584 57.76 87.712 59.168Z" fill="#F6D193"/>
<path d="M145.192 25.12C159.4 25.12 169.384 36.768 169.384 51.232C169.384 65.696 159.4 77.344 145.192 77.344C130.856 77.344 121 65.696 121 51.232C121 36.768 130.856 25.12 145.192 25.12ZM148.648 66.592C152.232 66.208 153.256 59.04 151.336 50.592C149.544 42.144 145.448 35.488 141.736 35.872C138.024 36.256 137 43.424 138.92 52C140.84 60.448 144.936 66.976 148.648 66.592Z" fill="#F6D193"/>
<path d="M204.804 25.888C213.636 25.888 220.036 35.616 220.036 47.904C220.036 60.32 214.276 73.376 204.42 76.192C198.532 77.984 194.436 73.248 191.748 69.28C191.492 68.896 191.108 68.512 190.98 69.664C190.468 74.016 187.908 76.576 182.02 76.576C175.748 76.576 173.06 73.376 173.06 68.256C173.06 63.008 174.724 56.224 174.724 44.576C174.724 26.912 170.5 28.448 170.5 21.92C170.5 16.032 179.716 12.448 184.58 12.448C189.444 12.448 191.108 15.776 191.108 20.768C191.108 26.016 189.316 32.928 189.316 44.576C189.316 47.392 189.956 47.264 190.212 46.24C192.004 37.92 196.612 25.888 204.804 25.888ZM190.212 59.168C190.34 60.448 190.852 61.728 192.132 62.496C197.124 64.928 206.212 61.984 204.804 53.152C203.396 45.088 195.332 49.056 191.236 54.304C190.34 55.584 190.084 57.76 190.212 59.168Z" fill="#F6D193"/>
<path d="M269.964 34.208C269.964 43.04 266.892 53.664 268.3 57.376C269.58 60.832 273.164 61.856 273.164 66.848C273.164 71.712 267.148 76.576 261.004 76.576C255.244 76.576 252.556 74.016 252.044 69.792C251.916 68.256 251.276 69.664 250.892 70.304C248.076 74.144 244.364 77.728 239.116 76.192C229.26 73.376 223.5 60.32 223.5 47.904C223.5 35.616 229.9 25.888 238.86 25.888C246.156 25.888 250.252 37.28 252.428 45.856C252.684 47.136 253.452 47.008 253.324 45.856C252.812 41.76 252.044 37.792 252.044 34.208C252.044 29.088 254.604 25.888 261.004 25.888C267.404 25.888 269.964 29.088 269.964 34.208ZM238.86 53.152C237.452 61.088 244.748 64.544 249.868 63.008C252.172 62.24 252.556 60.96 253.068 58.784C253.452 56.864 252.94 55.072 251.788 53.792C247.692 48.8 240.14 45.344 238.86 53.152Z" fill="#F6D193"/>
<!-- <path d="M106.832 9.464C108.368 10.296 109.968 12.216 109.968 14.584C109.968 18.008 106.928 20.952 104.08 20.952C103.312 20.952 102.576 20.856 101.936 20.632C101.328 20.44 100.752 19.96 99.28 20.664C98.928 20.824 98.512 20.952 98 20.952C95.344 20.952 94 18.904 94 16.952C94 13.656 96.56 10.744 96.56 7.704C96.56 5.656 95.248 5.88 94.448 4.152C93.776 2.68 94.576 0.727999 97.04 0.727999C98.128 0.727999 99.024 1.048 99.664 1.592C100.24 2.136 100.656 2.232 101.2 1.816C101.872 1.304 102.992 0.727999 104.72 0.727999C106.8 0.727999 108.944 2.2 108.944 4.536C108.944 6.488 107.856 7.704 106.768 8.504C106.192 8.92 106.128 9.08 106.832 9.464ZM100.56 5.624C100.304 6.36 100.144 8.216 101.68 7.736C103.888 7.032 104.592 4.152 103.408 3.736C102.288 3.352 100.944 4.504 100.56 5.624ZM104.592 12.472C104.912 11.512 103.76 10.392 101.744 10.136C100.144 9.944 100.144 11.416 100.656 12.28C101.584 13.816 104.208 13.624 104.592 12.472ZM120.77 11C123.042 8.248 127.554 12.152 126.402 16.344C125.698 18.904 123.266 20.952 120.866 20.952C119.778 20.952 118.818 20.792 118.082 20.44C117.346 20.056 117.058 20.12 116.034 20.664C115.714 20.824 115.298 20.952 114.818 20.952C112.162 20.952 110.594 18.904 110.594 16.952C110.594 13.656 113.154 10.744 113.154 7.704C113.154 5.656 111.842 5.88 111.042 4.152C110.37 2.68 111.17 0.727999 113.634 0.727999C114.498 0.727999 115.202 1.016 115.778 1.432C116.77 2.136 117.346 2.136 118.242 1.56C119.042 1.08 120.098 0.727999 121.314 0.727999C124.002 0.727999 125.858 1.784 125.858 3.672C125.858 6.072 122.274 7.32 121.25 5.688C120.578 4.568 119.49 3.64 118.146 4.312C116.866 4.984 117.378 6.616 118.818 6.616C120.77 6.616 121.378 7.192 121.378 8.024C121.378 8.888 120.482 9.464 119.17 9.464C116.066 9.464 115.266 12.984 117.282 13.592C119.042 14.168 119.458 12.568 120.77 11ZM142.689 4.312C143.009 6.328 142.273 7.448 140.865 7.448C139.073 7.448 138.113 4.92 137.441 3.64C137.057 2.968 136.449 2.968 136.449 4.92C136.449 5.56 136.513 6.424 136.865 7.544C137.601 9.72 139.329 13.368 139.329 15.896C139.329 19.16 137.121 20.952 134.689 20.952C132.257 20.952 130.081 19.16 130.081 15.896C130.081 13.368 131.809 9.72 132.513 7.544C132.865 6.424 132.961 5.56 132.961 4.92C132.961 2.968 132.321 2.968 131.937 3.64C131.265 4.92 130.305 7.448 128.513 7.448C127.105 7.448 126.401 6.328 126.689 4.312L126.977 2.712C127.201 1.432 128.033 0.727999 129.633 0.727999H139.745C141.345 0.727999 142.177 1.432 142.401 2.712L142.689 4.312ZM157.979 4.696C158.331 7.544 155.995 8.376 157.083 11.192C157.915 13.336 160.027 14.488 160.027 17.016C160.027 19 157.979 20.952 155.323 20.952C152.571 20.952 150.715 18.552 151.195 16.248C151.451 15.064 152.635 13.56 153.403 12.056C154.363 10.296 153.019 9.72 150.779 9.72C148.539 9.72 147.195 10.296 148.123 12.056C148.923 13.56 150.075 15.064 150.331 16.248C150.843 18.552 148.987 20.952 146.235 20.952C143.579 20.952 141.531 19 141.531 17.016C141.531 14.488 143.611 13.336 144.475 11.192C145.563 8.376 143.227 7.544 143.547 4.696C143.739 3.16 145.339 0.727999 150.779 0.727999C156.219 0.727999 157.819 3.16 157.979 4.696ZM151.515 7.192C154.619 7.192 152.571 5.176 150.779 5.176C148.987 5.176 146.939 7.192 150.011 7.192H151.515Z" fill="#F6D193"/> -->
<circle cx="258" cy="140" r="8" fill="#603101"/>
<circle cx="254.863" cy="136.549" r="1.41176" fill="#F6D193"/>
<circle cx="256.745" cy="139.059" r="0.784314" fill="#F6D193"/>
<circle cx="120" cy="72" r="8" fill="#603101"/>
<circle cx="116.863" cy="68.549" r="1.41176" fill="#F6D193"/>
<circle cx="118.745" cy="71.0589" r="0.784314" fill="#F6D193"/>
<circle cx="155" cy="84" r="5" fill="#603101"/>
<ellipse cx="153.039" cy="81.8432" rx="0.882353" ry="0.882353" fill="#F6D193"/>
<ellipse cx="154.216" cy="83.4117" rx="0.490196" ry="0.490196" fill="#F6D193"/>
<circle cx="62" cy="78" r="8" fill="#603101"/>
<circle cx="58.8627" cy="74.549" r="1.41176" fill="#F6D193"/>
<circle cx="60.7451" cy="77.0589" r="0.784314" fill="#F6D193"/>
<circle cx="279" cy="45" r="8" fill="#603101"/>
<circle cx="275.863" cy="41.549" r="1.41176" fill="#F6D193"/>
<circle cx="277.745" cy="44.0588" r="0.784314" fill="#F6D193"/>
<circle cx="223" cy="74" r="8" fill="#603101"/>
<circle cx="219.863" cy="70.549" r="1.41176" fill="#F6D193"/>
<circle cx="221.745" cy="73.0589" r="0.784314" fill="#F6D193"/>
<circle cx="274.5" cy="148.5" r="4.5" fill="#603101"/>
<circle cx="272.735" cy="146.559" r="0.794118" fill="#F6D193"/>
<ellipse cx="273.794" cy="147.971" rx="0.441177" ry="0.441176" fill="#F6D193"/>
<circle cx="58.5" cy="53.5" r="4.5" fill="#603101"/>
<circle cx="56.7353" cy="51.5588" r="0.794118" fill="#F6D193"/>
<ellipse cx="57.7941" cy="52.9706" rx="0.441177" ry="0.441176" fill="#F6D193"/>
<path d="M18.9 134.413C18.9 132.109 18.9582 129.524 19.6215 127.328C20.0027 126.067 19.6156 124.594 20.0689 123.301C20.3681 122.448 20.3719 121.479 20.6606 120.597C21.2968 118.653 22.712 116.327 24.0953 114.836C24.799 114.077 25.4298 113.081 26.3033 112.587C27.541 111.887 29.1167 111.343 30.1998 110.485C30.9121 109.921 35.6586 107.692 32.278 107.692C29.509 107.692 26.6483 106.736 24.6726 104.724C22.8062 102.823 22.107 99.7454 21.8151 97.169C21.5716 95.0192 21.3177 92.6004 20.8482 90.4963C20.6246 89.4945 21.0343 88.2313 19.5638 88.6591C18.7819 88.8867 18.6013 92.6851 18.366 93.524C17.7645 95.6683 16.4257 97.8195 15.523 99.8881C14.7375 101.688 12.5986 103.19 11.3667 104.724C10.5108 105.789 9.23132 106.581 8.1052 107.31C6.36501 108.438 3.94167 107.167 2.27487 108.016C1.17258 108.577 3.70733 109.809 4.22312 109.809C5.06449 109.809 5.9707 109.504 6.69091 109.544C7.73994 109.604 9.47531 111.322 10.1978 112.058C11.3838 113.266 12.2894 114.598 13.0552 116.158C14.7633 119.637 15.7743 122.723 16.6919 126.461C17.0826 128.053 18.0378 129.9 18.1207 131.503C18.1484 132.039 18.9 134.287 18.9 132.825" stroke="#E2A567" stroke-width="3" stroke-linecap="round"/>
<path d="M37.0836 136C37.0836 134.086 37.1106 132.253 36.4198 130.444C35.8867 129.048 35.5254 127.33 34.3417 126.344C33.3255 125.497 32.8697 125.34 31.744 125.668C30.619 125.995 32.7967 125.418 33.3314 125.418C34.2981 125.418 35.6244 125.699 36.3621 124.947C36.8103 124.491 36.5641 123.149 36.5641 122.508C36.5641 121.538 36.5641 120.568 36.5641 119.598C36.5641 118.951 36.7345 118.571 37.0259 118.01C37.4431 117.208 37.3434 119.358 37.3434 119.598C37.3434 120.712 37.6032 121.867 37.6032 122.905C37.6032 124.213 38.4557 124.109 39.2917 124.771C40.5552 125.772 42.9159 126.211 44.487 126.211C46.3244 126.211 43.4534 126.304 42.914 126.476C41.9596 126.781 41.1772 127.11 40.4606 127.799C38.8525 129.346 37.8629 133.045 37.8629 135.206" stroke="#E2A567" stroke-width="3" stroke-linecap="round"/>
<path d="M46.4353 104.253C46.4353 102.16 46.7987 97.6157 44.6169 96.2578C43.4263 95.5168 42.4523 94.5431 41.2399 93.9943C40.9136 93.8467 38.2382 93.5905 38.2382 93.3477C38.2382 92.9917 41.5403 93.1371 41.8172 93.0831C42.6524 92.9202 44.2623 92.9235 44.6746 92.0837C44.9566 91.5093 45.0817 90.8311 45.3962 90.2906C45.7157 89.7414 46.266 84 46.695 84C47.2627 84 46.695 85.1562 46.695 85.7343C46.695 86.3712 46.695 87.0081 46.695 87.645C46.695 88.7266 46.6545 89.973 47.7341 90.5551C49.5807 91.5508 51.8108 91.9595 53.7087 92.8185C54.3287 93.0992 53.9081 92.7023 53.449 92.9361C52.9999 93.1648 52.2987 93.6373 51.9481 93.9943C51.0299 94.9295 50.5275 95.6537 49.8122 96.7869C48.9325 98.1806 47.811 99.4347 47.2723 101.02C46.9988 101.824 46.7771 102.763 46.4353 103.46" stroke="#E2A567" stroke-width="3" stroke-linecap="round"/>
<path d="M317.849 136.839C317.849 134.536 317.79 131.951 317.114 129.755C316.726 128.493 317.121 127.02 316.659 125.728C316.354 124.875 316.35 123.906 316.056 123.023C315.408 121.08 313.967 118.754 312.558 117.262C311.842 116.503 311.199 115.508 310.31 115.013C309.049 114.313 307.444 113.769 306.341 112.912C305.616 112.347 300.782 110.119 304.225 110.119C307.045 110.119 309.958 109.162 311.97 107.15C313.871 105.249 314.583 102.172 314.88 99.5955C315.129 97.4457 315.387 95.0269 315.865 92.9229C316.093 91.921 315.676 90.6578 317.173 91.0857C317.97 91.3132 318.153 95.1116 318.393 95.9506C319.006 98.0948 320.369 100.246 321.289 102.315C322.089 104.115 324.267 105.617 325.521 107.15C326.393 108.216 327.696 109.007 328.843 109.737C330.615 110.865 333.083 109.594 334.781 110.442C335.904 111.004 333.322 112.235 332.797 112.235C331.94 112.235 331.017 111.93 330.284 111.971C329.215 112.03 327.448 113.748 326.712 114.484C325.504 115.692 324.582 117.025 323.802 118.585C322.062 122.064 321.033 125.15 320.098 128.888C319.7 130.479 318.727 132.326 318.643 133.929C318.615 134.465 317.849 136.713 317.849 135.252" stroke="#E2A567" stroke-width="3" stroke-linecap="round"/>
<path d="M296.158 148.168C296.158 146.254 296.13 144.422 296.834 142.613C297.377 141.217 297.745 139.498 298.95 138.512C299.985 137.665 300.449 137.508 301.596 137.836C302.742 138.163 300.524 137.586 299.979 137.586C298.995 137.586 297.644 137.867 296.893 137.116C296.436 136.659 296.687 135.317 296.687 134.676C296.687 133.706 296.687 132.736 296.687 131.766C296.687 131.12 296.513 130.739 296.217 130.178C295.792 129.376 295.893 131.526 295.893 131.766C295.893 132.88 295.629 134.035 295.629 135.073C295.629 136.382 294.76 136.277 293.909 136.939C292.622 137.94 290.218 138.38 288.618 138.38C286.747 138.38 289.671 138.472 290.22 138.644C291.192 138.949 291.989 139.278 292.719 139.967C294.356 141.514 295.364 145.213 295.364 147.375" stroke="#E2A567" stroke-width="3" stroke-linecap="round"/>
<path d="M299.725 100.253C299.725 98.1601 299.355 93.6157 301.577 92.2578C302.789 91.5168 303.781 90.5431 305.016 89.9943C305.348 89.8467 308.073 89.5905 308.073 89.3477C308.073 88.9917 304.71 89.1371 304.428 89.0831C303.578 88.9202 301.938 88.9235 301.518 88.0837C301.231 87.5093 301.104 86.8311 300.783 86.2906C300.458 85.7414 299.897 80 299.46 80C298.882 80 299.46 81.1562 299.46 81.7343C299.46 82.3712 299.46 83.0081 299.46 83.645C299.46 84.7266 299.502 85.973 298.402 86.5551C296.522 87.5508 294.25 87.9595 292.317 88.8185C291.686 89.0992 292.114 88.7023 292.582 88.9361C293.039 89.1648 293.753 89.6373 294.111 89.9943C295.046 90.9295 295.557 91.6537 296.286 92.7869C297.182 94.1806 298.324 95.4347 298.873 97.0198C299.151 97.8244 299.377 98.7633 299.725 99.4596" stroke="#E2A567" stroke-width="3" stroke-linecap="round"/>
</svg>
